inDegrees=yes
name=ik_S53_A04_T01
DataType=double
version=3
OpenSimVersion=4.3-2021-08-27-4bc7ad9
endheader
time	pelvis_tilt	pelvis_list	pelvis_rotation	pelvis_tx	pelvis_ty	pelvis_tz	hip_flexion_r	hip_adduction_r	hip_rotation_r	knee_angle_r	knee_angle_r_beta	ankle_angle_r	subtalar_angle_r	mtp_angle_r	hip_flexion_l	hip_adduction_l	hip_rotation_l	knee_angle_l	knee_angle_l_beta	ankle_angle_l	subtalar_angle_l	mtp_angle_l	lumbar_extension	lumbar_bending	lumbar_rotation	arm_flex_r	arm_add_r	arm_rot_r	elbow_flex_r	pro_sup_r	wrist_flex_r	wrist_dev_r	arm_flex_l	arm_add_l	arm_rot_l	elbow_flex_l	pro_sup_l	wrist_flex_l	wrist_dev_l
14.35000000000029	1.718595677555092	-3.769297798630672	37.76473275475735	0	0.9399999999999999	0	-0.2840376403096767	-0.389174006978181	-16.15056644505608	-0.479706919200344	-0.008372465184644406	0	0	0	7.283396797990222	-12.26473038252277	-9.215486540578341	6.714229504201733	0.1171854115828667	0	0	0	0	0	0	19.93633567230451	-19.93633567230451	3.279266914809977	63.21248748251845	86.72073327351724	0	0	19.93633567230451	-19.93633567230451	3.279266914809977	63.21248748251845	86.72073327319731	0	0
14.36666666666696	1.68806268978069	-3.799191717937815	37.79834506542512	0	0.9399999999999999	0	-0.2241790396900523	-0.3926744190655269	-16.1505754460441	-0.4374281818717138	-0.007634562014673978	0	0	0	7.321523884665824	-12.27150070386168	-9.162245274284095	6.796652312637821	0.118623960968817	0	0	0	0	0	0	19.95876444587547	-19.95876444587547	3.282136510906561	63.25020468788496	86.71786367757687	0	0	19.95876444587547	-19.95876444587547	3.282136510906561	63.25020468788496	86.71786367725744	0	0
14.38333333333363	1.72459063187829	-3.775181159744279	37.79462323579935	0	0.9399999999999999	0	-0.1446898453740302	-0.4314531112841053	-16.13520120015995	-0.2294563732257802	-0.004004769202474827	0	0	0	7.591323402015433	-12.33983092950218	-9.282037362067411	7.252260474699542	0.1265758234957539	0	0	0	0	0	0	19.96148838309602	-19.96148838309602	3.282498169705246	63.25502884524747	86.71750201879809	0	0	19.96148838309602	-19.96148838309602	3.282498169705246	63.25502884524747	86.71750201847863	0	0
14.4000000000003	1.64765446840511	-3.85660342154769	37.86111804715905	0	0.9399999999999999	0	0.131018371041456	-0.486381765190069	-16.21362763286526	0.03004985936058026	0.0005244689856033634	0	0	0	7.87724523689722	-12.36988699748691	-9.239995030764739	7.454288107287948	0.130101870864431	0	0	0	0	0	0	20.01808438977184	-20.01808438977184	3.289830146058112	63.35184083806331	86.71017004284531	0	0	20.01808438977184	-20.01808438977184	3.289830146058112	63.35184083806331	86.7101700425272	0	0
14.41666666666696	1.624294954566908	-3.968809665247442	37.93403937832058	0	0.9399999999999999	0	0.2148462552960331	-0.4080107997297888	-16.27885909335777	0.09624810114896674	0.001679846263842007	0	0	0	8.167238709101682	-12.46460228831782	-9.080716766428131	7.817163668825215	0.1364352441882796	0	0	0	0	0	0	20.06385657905952	-20.06385657905952	3.295740000517849	63.4298090194441	86.70426018870783	0	0	20.06385657905952	-20.06385657905952	3.295740000517849	63.4298090194441	86.70426018839079	0	0
14.43333333333363	1.542436142619877	-4.046806393332541	37.96715196675135	0	0.9399999999999999	0	0.6253575224194813	-0.5243630652689792	-16.40383980298014	0.5155728029058821	0.008998442944443432	0	0	0	8.457078602896065	-12.49708978082119	-9.08337805798516	8.090624080022941	0.1412080287375375	0	0	0	0	0	0	20.12381022414498	-20.12381022414498	3.303566461444967	63.5334711652928	86.6964337282084	0	0	20.12381022414498	-20.12381022414498	3.303566461444967	63.5334711652928	86.69643372789281	0	0
14.4500000000003	1.504051124355194	-4.137914764970098	38.04056168334586	0	0.9399999999999999	0	0.7046285554476014	-0.4760551758589731	-16.48212034909285	0.6218899743871856	0.01085402763819959	0	0	0	8.700899439243912	-12.5954409759005	-9.082897866862902	8.306910823230499	0.1449829445349249	0	0	0	0	0	0	20.12698228821822	-20.12698228821822	3.303986300643257	63.53906270215916	86.6960138890331	0	0	20.12698228821822	-20.12698228821822	3.303986300643257	63.53906270215916	86.6960138887176	0	0
14.46666666666697	1.412999828603212	-4.17612286782234	38.08052397984842	0	0.9399999999999999	0	1.008083847273858	-0.5801563714804968	-16.51206606641658	0.9413131266082735	0.01642901335155662	0	0	0	8.94686370836814	-12.59712928027907	-9.072022895813893	8.567374636065964	0.149528895651202	0	0	0	0	0	0	20.18189977598682	-20.18189977598682	3.31108385406336	63.63273311827206	86.68891633600008	0	0	20.18189977598682	-20.18189977598682	3.31108385406336	63.63273311827206	86.68891633568589	0	0
14.48333333333363	1.355856064988953	-4.212217859485314	38.08106364217509	0	0.9399999999999999	0	1.27383800924697	-0.651746800723377	-16.50415007050898	1.26950767015905	0.02215708872359758	0	0	0	9.225540480524476	-12.60488575939317	-9.033245645850423	8.763903594460421	0.1529589730507002	0	0	0	0	0	0	20.23555700108215	-20.23555700108215	3.318063050514672	63.72505426449825	86.68193713992991	0	0	20.23555700108215	-20.23555700108215	3.318063050514672	63.72505426449825	86.68193713961703	0	0
14.5000000000003	1.307474660503258	-4.26564888899336	38.11624182039673	0	0.9399999999999999	0	1.522253509759813	-0.7198682067467855	-16.57645400361444	1.456180305901531	0.02541514084067992	0	0	0	9.49063357402882	-12.63800968910519	-8.943408702468586	8.980690984440148	0.1567426267826514	0	0	0	0	0	0	20.28166489946626	-20.28166489946626	3.324016036405636	63.80359999365	86.67598415436353	0	0	20.28166489946626	-20.28166489946626	3.324016036405636	63.80359999365	86.67598415405176	0	0
14.51666666666697	1.256620400491703	-4.370363119548223	38.20101843918362	0	0.9399999999999999	0	1.786915600837777	-0.73943037361635	-16.67370934534564	1.707144871284649	0.02979529881245192	0	0	0	9.644800714831005	-12.68552796577319	-8.801032420497654	9.161344923667588	0.159895632828868	0	0	0	0	0	0	20.32762977653256	-20.32762977653256	3.329941487530099	63.88177127826759	86.67005870356205	0	0	20.32762977653256	-20.32762977653256	3.329941487530099	63.88177127826759	86.67005870325137	0	0
14.53333333333364	1.252995878150891	-4.446821555811881	38.33016430231469	0	0.9399999999999999	0	1.832032689323607	-0.6877073131256833	-16.786021577784	1.82689454001824	0.0318853248100256	0	0	0	9.725911039697687	-12.73298743580591	-8.613554627416759	9.305974931657769	0.1624199026654823	0	0	0	0	0	0	20.32991722856755	-20.32991722856755	3.330240062583547	63.88573395909849	86.66976012852497	0	0	20.32991722856755	-20.32991722856755	3.330240062583547	63.88573395909849	86.66976012821431	0	0
14.5500000000003	1.218689087435006	-4.547125833671667	38.42974664605781	0	0.9399999999999999	0	2.356342438067823	-0.7898760761188232	-16.92093224609479	2.258507534934753	0.03941839266571229	0	0	0	10.09578547651603	-12.81698603244262	-8.413663639419307	9.706724259625767	0.1694142979136785	0	0	0	0	0	0	20.33304723134411	-20.33304723134411	3.330646162278899	63.89111842371763	86.66935402885183	0	0	20.33304723134411	-20.33304723134411	3.330646162278899	63.89111842371763	86.66935402854118	0	0
14.56666666666697	1.132297462897597	-4.616275082674797	38.4456075631737	0	0.9399999999999999	0	2.497452233923219	-0.8223883486018603	-16.93571801106129	2.454643875876462	0.04284161759795928	0	0	0	10.41872323050251	-12.8555583930196	-8.302235900294711	10.02845964053904	0.1750296396307732	0	0	0	0	0	0	20.3994358152963	-20.3994358152963	3.33915145360914	64.00308440083269	86.66084873798472	0	0	20.3994358152963	-20.3994358152963	3.33915145360914	64.00308440083269	86.66084873767566	0	0
